<svg width="36" height="37" viewBox="0 0 36 37" fill="none" xmlns="http://www.w3.org/2000/svg">
<path d="M5.81421 9.50581C5.81421 8.72428 6.08867 8.07952 6.63758 7.57155C7.18648 7.06356 7.90008 6.80957 8.77833 6.80957C9.64091 6.80957 10.3388 7.05964 10.872 7.55983C11.4209 8.07563 11.6954 8.74772 11.6954 9.57615C11.6954 10.3264 11.4288 10.9516 10.8956 11.4518C10.3467 11.9676 9.62522 12.2255 8.73128 12.2255H8.70776C7.84517 12.2255 7.14729 11.9676 6.61405 11.4518C6.08082 10.936 5.81421 10.2873 5.81421 9.50581ZM6.12003 30.0207V14.359H11.3425V30.0207H6.12003ZM14.2361 30.0207H19.4586V21.2755C19.4586 20.7284 19.5213 20.3064 19.6468 20.0094C19.8663 19.478 20.1996 19.0286 20.6466 18.6613C21.0936 18.294 21.6542 18.1103 22.3286 18.1103C24.0851 18.1103 24.9634 19.2904 24.9634 21.6506V30.0207H30.1859V21.041C30.1859 18.7277 29.637 16.9732 28.5391 15.7775C27.4413 14.5818 25.9906 13.9839 24.1871 13.9839C22.1639 13.9839 20.5878 14.8514 19.4586 16.5864V16.6333H19.4351L19.4586 16.5864V14.359H14.2361C14.2674 14.8592 14.2831 16.4144 14.2831 19.0247C14.2831 21.635 14.2674 25.3003 14.2361 30.0207Z" fill="white"/>
</svg>
