<svg width="130" height="32" viewBox="0 0 130 32" fill="none" xmlns="http://www.w3.org/2000/svg">
<path d="M15.9999 16.6393L32 16.3194V15.6793L15.9999 15.3594V16.6393Z" fill="#FC5842"/>
<path d="M16.32 7.99994H15.68L15.36 0H16.64L16.32 7.99994Z" fill="white"/>
<path d="M15.68 24H16.32L16.64 31.9999H15.36L15.68 24Z" fill="white"/>
<path d="M7.99994 15.6793V16.3194L0 16.6393V15.3594L7.99994 15.6793Z" fill="white"/>
<path d="M21.8832 10.5691L21.4307 10.1166L26.8612 4.2334L27.7662 5.13856L21.8832 10.5691Z" fill="white"/>
<path d="M10.1169 21.4307L10.5694 21.8832L5.13887 27.7663L4.2337 26.8612L10.1169 21.4307Z" fill="white"/>
<path d="M21.4307 21.8832L21.8832 21.4307L27.7662 26.8612L26.8612 27.7663L21.4307 21.8832Z" fill="white"/>
<path d="M10.5694 10.1164L10.1169 10.5689L4.2337 5.1384L5.13887 4.2334L10.5694 10.1164Z" fill="white"/>
<path d="M13.234 8.48608L12.6428 8.73101L9.28564 1.46251L10.4682 0.972656L13.234 8.48608Z" fill="white"/>
<path d="M18.7659 23.5135L19.3571 23.2686L22.7143 30.5371L21.5316 31.0269L18.7659 23.5135Z" fill="white"/>
<path d="M8.48651 18.7656L8.73144 19.3569L1.46294 22.714L0.973083 21.5315L8.48651 18.7656Z" fill="white"/>
<path d="M19.3571 8.73101L18.7659 8.48608L21.5316 0.972656L22.7143 1.46251L19.3571 8.73101Z" fill="white"/>
<path d="M12.6428 23.2686L13.234 23.5135L10.4682 31.0269L9.28564 30.5371L12.6428 23.2686Z" fill="white"/>
<path d="M23.2685 19.3569L23.5133 18.7656L31.0268 21.5315L30.537 22.714L23.2685 19.3569Z" fill="white"/>
<path d="M8.73144 12.6433L8.48651 13.2345L0.973083 10.4686L1.46294 9.28613L8.73144 12.6433Z" fill="white"/>
<path d="M14.753 8.09133L14.1253 8.2161L12.2508 0.432312L13.5063 0.182617L14.753 8.09133Z" fill="white"/>
<path d="M17.2467 23.908L17.8744 23.7832L19.7491 31.567L18.4936 31.8167L17.2467 23.908Z" fill="white"/>
<path d="M8.09145 17.2471L8.21622 17.8749L0.432435 19.7494L0.182739 18.494L8.09145 17.2471Z" fill="white"/>
<path d="M20.7105 9.52587L20.1784 9.17032L24.3568 2.34082L25.4211 3.05192L20.7105 9.52587Z" fill="white"/>
<path d="M11.2893 22.4736L11.8215 22.8293L7.64294 29.6588L6.57867 28.9476L11.2893 22.4736Z" fill="white"/>
<path d="M22.4738 20.7108L22.8293 20.1787L29.6588 24.3573L28.9477 25.4215L22.4738 20.7108Z" fill="white"/>
<path d="M9.526 11.2898L9.17045 11.8219L2.34094 7.64337L3.0522 6.5791L9.526 11.2898Z" fill="white"/>
<path d="M11.8215 9.17032L11.2893 9.52587L6.57867 3.05192L7.64294 2.34082L11.8215 9.17032Z" fill="white"/>
<path d="M20.1784 22.8293L20.7105 22.4736L25.4211 28.9476L24.3568 29.6588L20.1784 22.8293Z" fill="white"/>
<path d="M22.8293 11.8219L22.4738 11.2898L28.9477 6.5791L29.6588 7.64352L22.8293 11.8219Z" fill="white"/>
<path d="M9.17045 20.1787L9.526 20.7108L3.05204 25.4215L2.34094 24.3573L9.17045 20.1787Z" fill="white"/>
<path d="M17.8744 8.2161L17.2467 8.09133L18.4936 0.182617L19.7491 0.432312L17.8744 8.2161Z" fill="white"/>
<path d="M14.1253 23.7832L14.753 23.908L13.5063 31.8167L12.2508 31.567L14.1253 23.7832Z" fill="white"/>
<path d="M23.7838 17.8749L23.9087 17.2471L31.8174 18.494L31.5678 19.7494L23.7838 17.8749Z" fill="white"/>
<path d="M8.21622 14.1255L8.09145 14.7533L0.182739 13.5064L0.432435 12.251L8.21622 14.1255Z" fill="white"/>
<path d="M60.0261 19.7402C61.7915 21.1887 63.4966 21.913 65.1412 21.9129C66.0161 21.9129 66.7103 21.7243 67.2236 21.3471C67.4695 21.1746 67.6686 20.9435 67.8029 20.6749C67.9373 20.4062 68.0026 20.1083 67.9931 19.8081C68.0027 19.4148 67.8746 19.0305 67.631 18.7216C67.3894 18.42 66.9292 18.0956 66.2503 17.7485L63.4891 16.4357C62.2668 15.8625 61.4105 15.2438 60.9202 14.5797C60.4213 13.8895 60.1629 13.0546 60.1846 12.2033C60.167 11.5291 60.3048 10.86 60.5874 10.2477C60.87 9.63538 61.2898 9.09637 61.8142 8.67242C62.3264 8.25748 62.9145 7.94616 63.5456 7.75582C64.2165 7.54993 64.9148 7.44691 65.6166 7.45027C66.034 7.45123 66.4506 7.48909 66.8614 7.56342C67.274 7.63639 67.6792 7.74623 68.0722 7.89163C68.4495 8.03153 68.8133 8.2058 69.1587 8.41223C69.4843 8.60588 69.7912 8.82939 70.0753 9.07987V12.2485C69.4279 11.5882 68.6743 11.0412 67.8459 10.6302C67.1194 10.2614 66.318 10.0639 65.5033 10.0531C64.7791 10.0531 64.1944 10.2228 63.7494 10.5623C63.5334 10.7226 63.3597 10.9332 63.2434 11.1757C63.127 11.4183 63.0715 11.6855 63.0817 11.9543C63.0762 12.3155 63.1962 12.6675 63.4211 12.9501C63.6474 13.237 64.0548 13.5162 64.6433 13.7876L67.2236 14.9872C67.8209 15.2587 68.396 15.5765 68.9437 15.9378C69.3705 16.2177 69.7522 16.5611 70.0754 16.9562C70.3551 17.3058 70.5663 17.7051 70.6978 18.1331C70.8305 18.5889 70.8953 19.0618 70.8902 19.5364C70.9072 20.253 70.7552 20.9634 70.4466 21.6103C70.1379 22.2572 69.6812 22.8222 69.1134 23.2597C68.5581 23.6847 67.9289 24.0032 67.2575 24.1989C66.549 24.4111 65.8131 24.5178 65.0734 24.5158C64.1344 24.5177 63.2015 24.3647 62.3122 24.0631C61.4875 23.7961 60.7144 23.3905 60.0261 22.8635L60.0261 19.7402Z" fill="white"/>
<path d="M72.2145 15.9831C72.2076 14.8401 72.4348 13.7079 72.8822 12.656C73.7401 10.61 75.365 8.98106 77.4089 8.11801C78.4565 7.67011 79.5853 7.44284 80.7246 7.45038C81.485 7.44732 82.2424 7.54626 82.9765 7.74457C83.6875 7.93853 84.369 8.22787 85.0024 8.60472V12.1354C84.4954 11.5709 83.8691 11.1264 83.1689 10.834C82.4166 10.5193 81.6079 10.3614 80.7924 10.37C80.0392 10.364 79.2924 10.5102 78.5971 10.8C77.938 11.0733 77.3412 11.4776 76.8429 11.9884C76.346 12.504 75.954 13.1112 75.6887 13.7764C75.4066 14.4776 75.2643 15.2273 75.2699 15.9831C75.2636 16.7354 75.4059 17.4815 75.6887 18.1786C75.9571 18.8414 76.3532 19.4451 76.8544 19.9552C77.3567 20.4639 77.9521 20.8711 78.6083 21.1548C79.2976 21.4527 80.0416 21.6031 80.7924 21.5961C81.6079 21.605 82.4166 21.4471 83.1689 21.1322C83.8692 20.8401 84.4956 20.3955 85.0024 19.8307V23.3615C84.3692 23.7387 83.6876 24.028 82.9765 24.2216C82.2424 24.4199 81.485 24.5189 80.7246 24.5159C79.5841 24.5234 78.4546 24.2921 77.4089 23.8368C76.4001 23.4011 75.4826 22.7792 74.7042 22.0036C73.9295 21.2268 73.311 20.3086 72.8822 19.2989C72.4341 18.2513 72.2069 17.1225 72.2145 15.9831Z" fill="white"/>
<path d="M95.0494 7.45049C96.1926 7.44079 97.3255 7.66811 98.3766 8.11814C99.3793 8.5476 100.29 9.1662 101.059 9.94012C101.827 10.7194 102.434 11.6423 102.846 12.6562C103.279 13.7116 103.499 14.8425 103.492 15.9833C103.499 17.1215 103.276 18.2495 102.835 19.299C102.415 20.3055 101.809 21.2232 101.047 22.0037C100.28 22.782 99.369 23.4045 98.3651 23.8369C97.3171 24.285 96.1891 24.516 95.0494 24.516C93.9096 24.516 92.7816 24.285 91.7336 23.8369C90.7297 23.4047 89.8189 22.7822 89.0516 22.0037C88.2898 21.2234 87.683 20.3056 87.2635 19.299C86.3884 17.1712 86.3884 14.784 87.2635 12.6562C87.681 11.6452 88.2879 10.7233 89.0516 9.94012C89.8335 9.14446 90.7674 8.51406 91.7977 8.08638C92.828 7.6587 93.9338 7.44245 95.0494 7.45049ZM95.0494 21.6868C95.8029 21.6968 96.5491 21.5382 97.2335 21.2228C97.8759 20.9239 98.4528 20.5008 98.9311 19.978C99.4112 19.4495 99.7874 18.8352 100.04 18.1674C100.306 17.4701 100.44 16.7295 100.436 15.9833C100.44 15.2334 100.305 14.4892 100.04 13.7878C99.7892 13.1157 99.4128 12.4974 98.9311 11.9658C98.4542 11.4443 97.8768 11.0247 97.2335 10.7324C96.544 10.4337 95.8007 10.2797 95.0494 10.2797C94.298 10.2797 93.5547 10.4337 92.8653 10.7324C92.222 11.0247 91.6445 11.4443 91.1678 11.9658C90.6857 12.4973 90.3093 13.1156 90.0586 13.7878C89.7933 14.4892 89.6591 15.2334 89.6626 15.9833C89.6584 16.7295 89.7926 17.4701 90.0586 18.1674C90.3111 18.8353 90.6874 19.4496 91.1678 19.978C91.6486 20.5028 92.2296 20.926 92.8766 21.2228C93.5577 21.536 94.2997 21.6944 95.0494 21.6868Z" fill="white"/>
<path d="M105.64 24.2446V7.72236H110.302C111.175 7.7114 112.046 7.8335 112.882 8.08446C113.597 8.29728 114.265 8.64281 114.851 9.10299C115.389 9.5338 115.819 10.084 116.108 10.7099C116.409 11.3781 116.56 12.1045 116.549 12.8374C116.577 13.8314 116.283 14.8079 115.711 15.6214C115.103 16.428 114.267 17.0348 113.312 17.3641L118.45 24.2446H114.897L110.166 17.862H108.695V24.2446H105.64ZM108.695 15.4176H110.302C111.268 15.4176 112.033 15.1913 112.599 14.7387C113.165 14.286 113.448 13.6522 113.448 12.8374C113.448 12.0226 113.165 11.3851 112.599 10.9249C112.033 10.4648 111.268 10.2348 110.302 10.2347H108.695V15.4176Z" fill="white"/>
<path d="M119.77 7.72168H129.955V10.2565H122.758V14.5343H129.389V17.0918H122.758V21.7089H130V24.2439H119.77V7.72168Z" fill="white"/>
<path d="M50.4197 7.484C51.8465 7.46628 53.2511 7.83798 54.4823 8.5591C55.7021 9.28119 56.7063 10.3167 57.3907 11.558L54.8332 13.097C54.3987 12.273 53.7547 11.5782 52.966 11.0826C52.2033 10.604 51.32 10.3528 50.4197 10.3584C49.6748 10.3501 48.9372 10.5046 48.2583 10.8111C47.615 11.1034 47.0375 11.523 46.5608 12.0446C46.0805 12.573 45.7042 13.1873 45.4517 13.8552C45.1871 14.545 45.0528 15.2779 45.0557 16.0167C45.0536 16.7602 45.1918 17.4973 45.463 18.1895C45.7233 18.8655 46.107 19.4872 46.5947 20.0228C47.0775 20.5512 47.6577 20.9815 48.3035 21.2903C48.9784 21.6113 49.7176 21.7738 50.4649 21.7655C51.6872 21.7655 52.7208 21.4298 53.5657 20.7584C54.42 20.0718 55.005 19.1062 55.218 18.0311H50.6461V15.4961H58.3866C58.4854 16.6907 58.3743 17.8933 58.0584 19.0495C57.7624 20.1113 57.2327 21.0935 56.508 21.924C55.7876 22.7813 54.8717 23.4527 53.8374 23.8817C52.7547 24.332 51.5922 24.5591 50.4197 24.5495C49.2827 24.5577 48.1568 24.3263 47.1153 23.8704C46.1158 23.4362 45.2091 22.8138 44.4446 22.0372C43.6828 21.2569 43.076 20.3391 42.6565 19.3325C42.2156 18.283 41.9924 17.155 42.0002 16.0167C41.9851 13.7642 42.8594 11.5966 44.4332 9.98496C45.1993 9.20498 46.1104 8.5822 47.1153 8.15164C48.1587 7.70307 49.2839 7.47574 50.4197 7.484Z" fill="white"/>
</svg>
