<svg width="24" height="24" viewBox="0 0 24 24" fill="none" xmlns="http://www.w3.org/2000/svg">
<path d="M17 9.13953H7C5.61929 9.13953 4.5 10.2588 4.5 11.6395V19.1395C4.5 20.5202 5.61929 21.6395 7 21.6395H17C18.3807 21.6395 19.5 20.5202 19.5 19.1395V11.6395C19.5 10.2588 18.3807 9.13953 17 9.13953Z" stroke="white" stroke-width="2" stroke-linecap="round" stroke-linejoin="round"/>
<path d="M12 1.63953C10.6739 1.63953 9.40215 2.16631 8.46447 3.10399C7.52678 4.04167 7 5.31344 7 6.63953V9.13953H17V6.63953C17 5.31344 16.4732 4.04167 15.5355 3.10399C14.5979 2.16631 13.3261 1.63953 12 1.63953V1.63953Z" stroke="white" stroke-width="2" stroke-linecap="round" stroke-linejoin="round"/>
</svg>
