<svg width="24" height="24" viewBox="0 0 24 24" fill="none" xmlns="http://www.w3.org/2000/svg">
<path d="M12.0016 21.6395C13.9792 21.6392 15.9124 21.0525 17.5567 19.9536C19.2009 18.8546 20.4824 17.2928 21.2391 15.4656C21.9958 13.6384 22.1937 11.6279 21.8078 9.68824C21.4219 7.74858 20.4695 5.96689 19.0711 4.56846C17.6726 3.17003 15.8909 2.21766 13.9513 1.83175C12.0116 1.44585 10.0011 1.64375 8.17389 2.40044C6.34669 3.15712 4.78489 4.4386 3.68596 6.08285C2.58702 7.7271 2.00031 9.66028 2 11.638C1.99979 12.9514 2.25835 14.2521 2.7609 15.4656C3.26346 16.6792 4.00016 17.7818 4.92893 18.7106C5.8577 19.6394 6.96035 20.3761 8.17389 20.8786C9.38743 21.3812 10.6881 21.6397 12.0016 21.6395V21.6395Z" stroke="white" stroke-width="2" stroke-linecap="round" stroke-linejoin="round"/>
<path d="M2.50183 14.7753H21.2156" stroke="white" stroke-width="2" stroke-linecap="round" stroke-linejoin="round"/>
<path d="M2.50183 8.50073H21.2156" stroke="white" stroke-width="2" stroke-linecap="round" stroke-linejoin="round"/>
<path d="M9.84307 1.87329C8.04822 8.34927 8.31245 15.2232 10.5991 21.5423" stroke="white" stroke-width="2" stroke-linecap="round" stroke-linejoin="round"/>
<path d="M14.1569 1.87329C14.9409 4.69158 15.3367 7.60367 15.3333 10.529C15.3413 14.284 14.6915 18.0115 13.4133 21.5423" stroke="white" stroke-width="2" stroke-linecap="round" stroke-linejoin="round"/>
</svg>
